<svg width="64" height="64" viewBox="0 0 64 64" fill="none" xmlns="http://www.w3.org/2000/svg">
<path fill-rule="evenodd" clip-rule="evenodd" d="M11.8287 18.9883C13.623 18.8024 15.4769 18.6408 17.3818 18.5052C17.9294 15.9851 18.63 13.6395 19.4658 11.5291C16.3961 13.4123 13.7821 15.9666 11.8287 18.9883ZM32 0C17.5515 0 5.34932 9.57257 1.36972 22.7124C0.478004 25.6567 0 28.7761 0 32C0 35.2239 0.478004 38.3433 1.36972 41.2876C5.34932 54.4274 17.5515 64 32 64C46.4485 64 58.6507 54.4274 62.6303 41.2876C63.522 38.3433 64 35.2239 64 32C64 28.7761 63.522 25.6567 62.6303 22.7124C58.6507 9.57257 46.4485 0 32 0ZM32 8C31.6958 8 31.0715 8.1269 30.1388 9.04737C29.1889 9.98481 28.15 11.5396 27.1913 13.7767C26.6415 15.0596 26.1439 16.5064 25.714 18.0909C27.7724 18.0309 29.8707 18 32 18C34.1293 18 36.2276 18.0309 38.286 18.0909C37.8561 16.5064 37.3585 15.0596 36.8087 13.7767C35.85 11.5396 34.8111 9.98481 33.8612 9.04737C32.9285 8.1269 32.3042 8 32 8ZM46.6182 18.5052C46.0706 15.9851 45.37 13.6395 44.5342 11.5291C47.6039 13.4123 50.2179 15.9666 52.1713 18.9883C50.377 18.8024 48.5231 18.6408 46.6182 18.5052ZM39.7194 26.1429C37.2148 26.0491 34.6356 26 32 26C29.3644 26 26.7852 26.0491 24.2806 26.1429C24.0981 28.0121 24 29.9722 24 32C24 34.0278 24.0981 35.9879 24.2806 37.8571C26.7852 37.9509 29.3644 38 32 38C34.6356 38 37.2148 37.9509 39.7194 37.8571C39.9019 35.9879 40 34.0278 40 32C40 29.9722 39.9019 28.0121 39.7194 26.1429ZM47.7915 37.3823C47.9291 35.6273 48 33.8283 48 32C48 30.1717 47.9291 28.3727 47.7915 26.6177C50.5269 26.8402 53.1295 27.1184 55.5691 27.4452C55.8517 28.9177 56 30.44 56 32C56 33.56 55.8517 35.0823 55.5691 36.5548C53.1295 36.8816 50.5269 37.1598 47.7915 37.3823ZM38.286 45.9091C36.2276 45.9691 34.1293 46 32 46C29.8707 46 27.7724 45.9691 25.714 45.9091C26.1439 47.4936 26.6415 48.9404 27.1913 50.2233C28.15 52.4604 29.1889 54.0152 30.1388 54.9526C31.0715 55.8731 31.6958 56 32 56C32.3042 56 32.9285 55.8731 33.8612 54.9526C34.8111 54.0152 35.85 52.4604 36.8087 50.2233C37.3585 48.9404 37.8561 47.4936 38.286 45.9091ZM44.5342 52.4709C45.37 50.3605 46.0706 48.0149 46.6182 45.4948C48.5231 45.3592 50.377 45.1976 52.1713 45.0117C50.2179 48.0334 47.6039 50.5877 44.5342 52.4709ZM19.4658 52.4709C18.63 50.3605 17.9294 48.0149 17.3818 45.4948C15.4769 45.3592 13.623 45.1976 11.8287 45.0117C13.7821 48.0334 16.3961 50.5877 19.4658 52.4709ZM8.43089 36.5548C10.8705 36.8816 13.4731 37.1598 16.2085 37.3823C16.0709 35.6273 16 33.8283 16 32C16 30.1717 16.0709 28.3727 16.2085 26.6177C13.4731 26.8402 10.8705 27.1184 8.43089 27.4452C8.14831 28.9177 8 30.44 8 32C8 33.56 8.14831 35.0823 8.43089 36.5548Z" fill="#141414"/>
</svg>
